<svg width="61" height="60" viewBox="0 0 61 60" fill="#fff" xmlns="http://www.w3.org/2000/svg">
<g clip-path="url(#clip0)">
<path d="M50.5 0C53.1522 0 55.6957 1.05357 57.5711 2.92893C59.4464 4.8043 60.5 7.34784 60.5 10V50C60.5 52.6522 59.4464 55.1957 57.5711 57.0711C55.6957 58.9464 53.1522 60 50.5 60H10.5C7.84784 60 5.3043 58.9464 3.42893 57.0711C1.55357 55.1957 0.5 52.6522 0.5 50V10C0.5 7.34784 1.55357 4.8043 3.42893 2.92893C5.3043 1.05357 7.84784 0 10.5 0L50.5 0ZM40.5 18.2V11.25H34.775C29.525 11.25 26.225 15.25 26.225 20.975V25.15H20.5V32.075H26.225V48.75H33.35V32.075H39.075L40.5 25.15H33.35V22.35C33.35 19.6 34.8 18.2 37.65 18.2H40.5Z" fill="#E8F1F2"/>
</g>
<defs>
<clipPath id="clip0">
<rect x="0.5" width="60" height="60" rx="12" fill="white"/>
</clipPath>
</defs>
</svg>
